<?xml version="1.0" encoding="utf-8"?>
<!-- Generator: Adobe Illustrator 22.0.1, SVG Export Plug-In . SVG Version: 6.00 Build 0)  -->
<svg version="1.1" id="Warstwa_1" xmlns="http://www.w3.org/2000/svg" xmlns:xlink="http://www.w3.org/1999/xlink" x="0px" y="0px"
	 viewBox="0 0 85 24" style="enable-background:new 0 0 85 24;" xml:space="preserve">
<style type="text/css">
	.st0{fill-rule:evenodd;clip-rule:evenodd;fill:#5B5B5B;}
</style>
<path class="st0" d="M3.5,11.8c0,2,0.7,4.2,3,4.2c2.3,0,3-2.2,3-4.2c0-2-0.6-4.1-3-4.1C4.1,7.6,3.5,9.8,3.5,11.8L3.5,11.8z M0,11.8
	c0-4.1,2.2-7.2,6.5-7.2c4.3,0,6.4,3.1,6.4,7.2c0,4.1-2.2,7.2-6.4,7.2C2.2,19,0,15.9,0,11.8L0,11.8z M15.2,18.5V5.1h3.2v2.3
	c0.8-1.6,2.2-3,4.2-2.7l0,3.6h-1.1c-1.9,0-2.8,1.2-2.8,3v7.1H15.2L15.2,18.5z M31.7,16.9c-0.9,1.5-2.4,2.1-4.1,2.1
	c-2.4,0-4-1.8-4-4.3c0-2.7,2.1-3.9,4.5-4.3c0.4-0.1,0.8-0.1,1.4-0.2c1.4-0.2,2.2-0.6,2.2-1.3c0-1.3-0.9-1.5-2.1-1.5
	c-1.1,0-1.8,0.6-2.4,1.7l-2.7-1.6c0.8-1.9,3-2.7,5-2.9c2.5-0.2,5.8,1.2,5.8,4.3l0,9.6h-3.5L31.7,16.9L31.7,16.9z M31.6,11.9
	c-0.6,0.3-1.2,0.5-1.9,0.7c-0.8,0.2-1.8,0.3-2.4,0.9c-1,1.2-0.1,2.7,1.3,2.7c1.8,0,3-1.2,3-3.1V11.9L31.6,11.9z M37.9,18.5V5.1h3.3
	v1.6c0.9-1.3,2.3-2,3.9-2c2.9,0,4.2,1.8,4.2,4.6v9.1h-3.4v-8.1c0-1.4-0.3-2.7-2-2.7c-1.7,0-2.6,1.2-2.6,2.8v8H37.9L37.9,18.5z
	 M55,11.6c0,1.9,0.6,3.9,2.8,3.9c2.2,0,2.8-2.1,2.8-4c0-1.9-0.6-3.9-2.8-3.9C55.6,7.7,55,9.8,55,11.6L55,11.6z M51.9,19.8l3.7,0
	c0.2,1,1.1,1.3,2,1.3c2.3,0,2.9-1.1,2.9-3.3v-1.2c-0.8,1.4-2,1.9-3.5,1.9c-3.8,0-5.4-3.4-5.4-6.8c0-3.4,1.5-7.1,5.4-7.1
	c1.6,0,2.9,0.6,3.7,2.1V5.1h3.2v12.5c0,1.4-0.1,2.5-0.4,3.2c-0.9,2.6-3.6,3.1-5.9,3.1C54.8,24,52.1,22.9,51.9,19.8L51.9,19.8z
	 M75.1,14.1l2.8,1.7c-0.9,1.9-3.7,3.2-5.7,3.2c-1.8,0-3.3-0.7-4.4-2c-1.1-1.3-1.8-3.1-1.8-5.3c0-3.8,2-7.1,6.1-7.1
	c2.2,0,3.7,0.8,4.7,2.1c1.2,1.5,1.5,3.7,1.2,6.1h-8.4c0.1,1.7,0.8,3.2,2.7,3.2C73.4,15.9,74.7,15.2,75.1,14.1L75.1,14.1z M69.6,10.1
	h5.2c0-1.5-0.9-2.4-2.6-2.4C70.5,7.6,69.6,8.5,69.6,10.1L69.6,10.1z M77.2,4.8h1v-4h1.4V0h-3.8v0.9h1.4V4.8L77.2,4.8z M80.2,4.8V0
	h1.5l1,3.7L83.5,0H85v4.8h-0.9V0.9l-1,3.9h-1l-1-3.9v3.9H80.2z"/>
</svg>
