<?xml version="1.0" encoding="utf-8"?>
<!-- Generator: Adobe Illustrator 22.0.1, SVG Export Plug-In . SVG Version: 6.00 Build 0)  -->
<svg version="1.1" id="Warstwa_1" xmlns="http://www.w3.org/2000/svg" xmlns:xlink="http://www.w3.org/1999/xlink" x="0px" y="0px"
	 viewBox="0 0 121 21" style="enable-background:new 0 0 121 21;" xml:space="preserve">
<style type="text/css">
	.st0{fill:#5B5B5B;}
</style>
<path class="st0" d="M16,9.7c-0.1-0.8-0.3-1.5-0.7-2.2l-3.5-6c-0.3-0.5-0.5-1-0.6-1.5l-0.2,0.3c-0.9,1.5-0.9,3.3,0,4.8L14,9.9
	c0.9,1.5,0.9,3.3,0,4.8l-0.2,0.3c-0.1-0.5-0.3-1-0.6-1.5l-2.5-4.4L9.1,6.2c-0.3-0.5-0.5-1-0.6-1.5L8.4,5c-0.9,1.5-0.9,3.3,0,4.8l0,0
	l2.8,4.8c0.9,1.5,0.9,3.3,0,4.8L11,19.7c-0.1-0.5-0.3-1-0.6-1.5l-3.5-6c-0.5-0.8-0.7-1.7-0.7-2.6c-3.7,1-6.3,3-6.3,5.4
	c0,3.3,5,6,11.1,6c6.1,0,11.1-2.7,11.1-6C22.3,12.7,19.8,10.6,16,9.7z M26.5,19.9c0.1-0.9,0.2-1.4,0.4-2.1c1.2,0.6,2.7,0.8,3.8,0.8
	c1.9,0,3-0.6,3-1.9c0-1.2-0.8-1.8-2.7-2.6L30,13.7c-2-0.9-3.3-2-3.3-4.1c0-2.4,1.7-3.9,5-3.9c1.4,0,2.6,0.2,3.8,0.6
	c-0.1,0.8-0.2,1.5-0.4,2.1c-1.1-0.4-2.5-0.6-3.5-0.6c-1.8,0-2.6,0.7-2.6,1.8c0,1.1,0.8,1.7,2.3,2.3l1.1,0.5c2.6,1.1,3.8,2.3,3.8,4.4
	c0,2.4-1.8,4-5.4,4C29.1,20.7,27.7,20.5,26.5,19.9z M47.4,10v10.4h-2.1l-0.1-1.3c-0.6,0.9-1.5,1.5-2.9,1.5c-2.7,0-4.6-2-4.6-5.5
	c0-3.6,2-5.8,5.8-5.8C45,9.4,46.2,9.6,47.4,10z M45.1,18v-6.5c-0.5-0.1-1-0.1-1.7-0.1c-2.4,0-3.5,1.5-3.5,3.8c0,2.1,0.9,3.6,2.9,3.6
	C43.8,18.8,44.5,18.5,45.1,18z M59.2,13.4v7h-2.3v-6.6c0-1.7-0.6-2.4-2.8-2.4c-0.6,0-1.2,0.1-1.8,0.2v8.9h-2.3V10
	c1.5-0.4,3.1-0.6,4.2-0.6C58,9.4,59.2,10.9,59.2,13.4z M65.6,18.7c0.7,0,1.3-0.1,1.8-0.3c-0.1,0.6-0.2,1.3-0.3,1.9
	c-0.6,0.3-1.3,0.4-1.9,0.4c-2.2,0-3.7-1-3.7-3.5v-11c0.7-0.3,1.6-0.4,2.3-0.4v3.9h3.7c-0.1,0.7-0.1,1.4-0.2,2h-3.5v5.1
	C63.8,18.2,64.5,18.7,65.6,18.7z M77.9,10v10.4h-2.1l-0.1-1.3c-0.6,0.9-1.5,1.5-2.9,1.5c-2.7,0-4.6-2-4.6-5.5c0-3.6,2-5.8,5.8-5.8
	C75.5,9.4,76.7,9.6,77.9,10z M75.6,18v-6.5c-0.5-0.1-1-0.1-1.7-0.1c-2.4,0-3.5,1.5-3.5,3.8c0,2.1,0.9,3.6,2.9,3.6
	C74.3,18.8,75,18.5,75.6,18z M89.7,13.4v7h-2.3v-6.6c0-1.7-0.6-2.4-2.8-2.4c-0.6,0-1.2,0.1-1.8,0.2v8.9h-2.3V10
	c1.5-0.4,3.1-0.6,4.2-0.6C88.4,9.4,89.7,10.9,89.7,13.4z M101.3,5.8v14.6h-2.1l-0.1-1.3c-0.6,1-1.5,1.6-3,1.6c-2.7,0-4.6-2-4.6-5.5
	c0-3.6,2-5.8,5.8-5.8c0.6,0,1.2,0.1,1.7,0.2V6.1C99.8,5.9,100.6,5.8,101.3,5.8z M99,18v-6.4c-0.6-0.1-1.2-0.2-1.8-0.2
	c-2.3,0-3.4,1.4-3.4,3.8c0,2.1,0.9,3.6,2.9,3.6C97.7,18.8,98.4,18.5,99,18z M112.9,15.9h-7.4c0.3,1.9,1.4,2.7,3.5,2.7
	c1.3,0,2.5-0.3,3.7-0.8c-0.1,0.6-0.2,1.4-0.4,2.1c-1.1,0.5-2.1,0.7-3.4,0.7c-3.9,0-5.7-2.1-5.7-5.7c0-3.1,1.4-5.6,5.1-5.6
	c3.3,0,4.7,2.1,4.7,4.8C113,14.8,113,15.3,112.9,15.9z M105.5,14h5.2c0-1.7-0.9-2.7-2.5-2.7C106.6,11.3,105.7,12.2,105.5,14z
	 M121,9.5c0,0.7-0.1,1.5-0.2,2c-0.6-0.1-1.1-0.1-1.7-0.1c-0.6,0-1.1,0.1-1.7,0.1v8.9h-2.3V10c1-0.4,2.6-0.6,3.9-0.6
	C119.7,9.4,120.5,9.4,121,9.5z"/>
</svg>
