<?xml version="1.0" encoding="utf-8"?>
<!-- Generator: Adobe Illustrator 22.0.1, SVG Export Plug-In . SVG Version: 6.00 Build 0)  -->
<svg version="1.1" id="Warstwa_1" xmlns="http://www.w3.org/2000/svg" xmlns:xlink="http://www.w3.org/1999/xlink" x="0px" y="0px"
	 viewBox="0 0 97 47" style="enable-background:new 0 0 97 47;" xml:space="preserve">
<style type="text/css">
	.st0{fill:#5B5B5B;}
</style>
<g>
	<g>
		<path class="st0" d="M20.3,10.7c3.7-1.6,7.2-3.1,7.2-5.5c0-0.6,0-3.7,0-5.2c-0.5,2.5-4.2,3.6-7.6,5.1c-3.5,1.4-5.7,2.7-6.4,4.9
			c-0.7,2.1-1.5,4.6-2.1,6.7C13.1,13.7,17.4,11.9,20.3,10.7z M8.9,22.7c2.6,0,3.9,0,8.2,0c-2.9-0.6-4.6-3-6-5.6
			c-1.5-2.7-2.7-5.1-4.8-4.9C5.6,12.4,2.5,12.7,0,13c1.8,0,2.7,2.6,3.9,5.2C5.1,20.7,6.2,22.7,8.9,22.7z M18.5,22.7
			c-5.3,1.6-10,2.6-11.2,6.8C6.2,33.1,5,36.6,3.9,40.2c2.5-4,8.5-5.7,13.4-7.5c4.9-1.8,10.2-3.7,10.2-7.3c0-0.9,0-5.7,0-8
			C26.9,20.2,23.8,21.1,18.5,22.7z M46.1,22.7c-4-0.4-6.9-3.5-9-7c-2.1-3.5-4.5-6.3-7.3-6c-0.8,0.1-5.4,0.6-8.5,0.9
			c2.9,0.3,4.9,2.7,6.2,5.7c1.4,3,2,6.3,5.9,6.4C37,22.7,40.2,22.7,46.1,22.7z M46.3,27.1h-2.8l-4.7,11.8h2.9l1.1-2.7h4.3l1.1,2.7
			H51L46.3,27.1z M43.3,34l1.6-4.1l1.6,4.1H43.3z M52.2,37.7c0.8,0.8,2.1,1.2,3.9,1.2c1.7,0,2.9-0.4,3.8-1.2
			c0.4-0.4,0.7-0.8,0.9-1.4c0.2-0.6,0.3-1.4,0.3-2.3v-6.9h-2.4v7c0,0.8-0.1,1.4-0.2,1.8c-0.2,0.3-0.4,0.6-0.8,0.8
			c-0.4,0.2-0.9,0.3-1.4,0.3c-0.9,0-1.5-0.2-2-0.7c-0.2-0.2-0.4-0.5-0.5-0.8c-0.1-0.3-0.1-0.7-0.1-1.3v-7h-2.4v7.1
			c0,0.9,0.1,1.6,0.2,2.2C51.5,36.9,51.8,37.3,52.2,37.7z M35,38.8h2.4v-9.7h3.8v-2.1h-9.8v2.1H35V38.8z M85,30
			c-0.4-1.1-1.1-1.9-2.1-2.4C82,27.2,81,27,79.8,27c-1.8,0-3.1,0.4-4,1.2c-1.1,1-1.6,2.6-1.6,4.8c0,1.3,0.2,2.3,0.6,3.2
			c0.4,0.9,1,1.5,1.8,1.9c1,0.5,2.1,0.7,3.4,0.7c1,0,1.9-0.2,2.6-0.5c1-0.4,1.8-1.2,2.2-2.2c0.4-0.9,0.6-1.9,0.6-3.1
			C85.5,31.9,85.3,30.9,85,30z M82.1,36c-0.5,0.6-1.2,1-2.2,1c-1,0-1.8-0.3-2.3-1c-0.5-0.7-0.7-1.7-0.7-3c0-1.3,0.2-2.2,0.6-2.8
			c0.5-0.8,1.3-1.1,2.4-1.1c1.1,0,1.9,0.4,2.4,1.2c0.4,0.6,0.6,1.6,0.6,2.8C82.8,34.3,82.6,35.3,82.1,36z M73.2,38.8
			c-0.1-0.3-0.2-0.9-0.3-1.8c0-0.5-0.1-0.9-0.1-1.2c-0.1-0.3-0.2-0.5-0.3-0.8c-0.2-0.4-0.4-0.6-0.6-0.8c-0.2-0.2-0.6-0.4-1-0.5
			c0.6-0.2,1-0.5,1.4-0.8c0.6-0.6,0.8-1.5,0.8-2.6c0-0.6-0.1-1.1-0.4-1.5c-0.2-0.5-0.6-0.8-1-1.1c-0.6-0.4-1.8-0.6-3.4-0.6h-5.6
			v11.8h2.4v-4.5h2c0.8,0,1.5,0.1,1.9,0.4c0.4,0.2,0.6,0.5,0.8,0.9c0.2,0.4,0.3,0.9,0.4,1.6c0.1,0.8,0.2,1.4,0.3,1.7H73.2z M69.8,32
			c-0.2,0.2-0.6,0.3-1.2,0.3h-3.4v-3.1h3.4c0.4,0,0.7,0,0.9,0.1c0.5,0.2,0.8,0.7,0.8,1.4C70.4,31.3,70.2,31.8,69.8,32z M94.7,27.1
			v8.8l-4.5-8.8H87v11.8h2.3v-8.6l4.7,8.6h3V27.1H94.7z M84.4,46.1c0-0.5-0.1-0.8-0.2-1c-0.1-0.2-0.3-0.4-0.7-0.5
			c0.3-0.1,0.5-0.2,0.6-0.3c0.3-0.2,0.4-0.6,0.4-1c0-0.2,0-0.5-0.1-0.7c-0.1-0.2-0.2-0.4-0.4-0.5c-0.3-0.2-0.7-0.3-1.4-0.3h-2.3v5.1
			h0.8v-2.2H82c0.6,0,1,0.1,1.2,0.3c0.2,0.2,0.4,0.6,0.4,1.1c0,0.3,0,0.5,0.1,0.6c0,0.1,0,0.1,0.1,0.2h0.8c0-0.1-0.1-0.2-0.1-0.2
			C84.5,46.6,84.5,46.5,84.4,46.1z M82.6,44.1h-1.4v-1.6h1.4c0.4,0,0.7,0,0.8,0.1c0.2,0.1,0.3,0.4,0.3,0.7c0,0.3-0.1,0.5-0.3,0.7
			C83.3,44.1,83,44.1,82.6,44.1z M38,41.9c-0.2-0.1-0.5-0.1-0.9-0.1H35v5.1h0.8v-1.8H37c0.4,0,0.7,0,0.9-0.1c0.2,0,0.4-0.1,0.5-0.3
			c0.3-0.3,0.5-0.7,0.5-1.3c0-0.3-0.1-0.6-0.2-0.9C38.6,42.3,38.3,42.1,38,41.9z M37.8,44.2c-0.1,0.1-0.4,0.2-0.8,0.2h-1.3v-1.9H37
			c0.4,0,0.7,0.1,0.8,0.2c0.2,0.2,0.2,0.4,0.2,0.7C38.1,43.8,38,44,37.8,44.2z M94,41.8l-2,5.1h0.8l0.5-1.3h2.3l0.5,1.3H97l-2-5.1
			H94z M93.6,44.9l0.9-2.5l0.9,2.5H93.6z M86.7,41.9c-0.2,0-0.4,0.1-0.6,0.2c-0.6,0.4-0.9,1.1-0.9,2.3c0,0.8,0.2,1.4,0.5,1.8
			c0.2,0.3,0.5,0.5,0.9,0.6c0.3,0.1,0.6,0.1,1.1,0.1h1.8V44h-2.3v0.6h1.5v1.6h-0.9c-0.4,0-0.7,0-0.9-0.1c-0.2-0.1-0.4-0.2-0.5-0.4
			c-0.1-0.2-0.2-0.4-0.2-0.6c0-0.2-0.1-0.5-0.1-0.8c0-0.8,0.2-1.4,0.6-1.7c0.1-0.1,0.3-0.1,0.4-0.2c0.1,0,0.4,0,0.7,0h1.7v-0.6h-1.8
			C87.3,41.8,87,41.9,86.7,41.9z M90.5,46.9h0.8v-5.1h-0.8V46.9z M60.1,41.8l-2,5.1h0.8l0.5-1.3h2.3l0.5,1.3h0.8l-2-5.1H60.1z
			 M59.7,44.9l0.9-2.5l0.9,2.5H59.7z M57.7,41.8h-1l-2.4,2.5l2.4,2.6h1.1l-2.6-2.6L57.7,41.8z M53.5,41.8v5.1h0.8v-2.6v-2.5H53.5z
			 M66.8,42.1c-0.3,0.2-0.6,0.5-0.8,0.9c-0.2,0.4-0.3,0.9-0.3,1.5c0,0.5,0.1,0.9,0.2,1.2c0.2,0.6,0.6,1,1,1.1c0.3,0.1,0.6,0.1,1,0.1
			h1.6v-0.6H68c-0.3,0-0.6,0-0.8-0.1c-0.2-0.1-0.3-0.2-0.5-0.5c-0.2-0.3-0.2-0.6-0.2-1h3V44h-3c0-0.3,0.1-0.6,0.1-0.8
			c0.1-0.2,0.2-0.4,0.4-0.5c0.1-0.1,0.2-0.2,0.4-0.2c0.1,0,0.4-0.1,0.6-0.1h1.4v-0.6h-1.4C67.5,41.8,67.1,41.9,66.8,42.1z
			 M52.3,44.2c-0.1-0.1-0.3-0.2-0.5-0.2c-0.2,0-0.5-0.1-0.9-0.1h-0.3c-0.4,0-0.7-0.1-0.8-0.2c-0.2-0.1-0.2-0.3-0.2-0.5
			c0-0.3,0.1-0.5,0.3-0.6c0.1-0.1,0.2-0.1,0.3-0.1c0.1,0,0.3,0,0.5,0h2v-0.6h-2c-0.5,0-0.8,0-1.1,0.1c-0.2,0.1-0.5,0.3-0.6,0.5
			c-0.2,0.3-0.2,0.5-0.2,0.9c0,0.5,0.2,0.9,0.5,1.1c0.2,0.2,0.7,0.2,1.2,0.2h0.4c0.4,0,0.6,0,0.8,0.1c0.3,0.1,0.4,0.3,0.4,0.7
			c0,0.3-0.1,0.5-0.3,0.7c-0.1,0.1-0.4,0.1-0.7,0.1h-2.1v0.6h2c0.4,0,0.6,0,0.8,0c0.2,0,0.3-0.1,0.5-0.2c0.5-0.2,0.7-0.7,0.7-1.3
			c0-0.3,0-0.5-0.1-0.7C52.6,44.5,52.5,44.4,52.3,44.2z M41.9,41.8c-0.4,0-0.8,0.1-1.1,0.2c-0.3,0.1-0.6,0.3-0.8,0.6
			c-0.2,0.2-0.3,0.5-0.4,0.8c-0.1,0.3-0.1,0.7-0.1,1.1c0,0.4,0,0.7,0.1,1.1c0.1,0.3,0.2,0.6,0.4,0.8c0.4,0.5,1,0.7,1.8,0.7
			c0.7,0,1.3-0.2,1.8-0.6c0.5-0.4,0.7-1.1,0.7-2c0-0.8-0.1-1.3-0.4-1.8C43.5,42.1,42.8,41.8,41.9,41.8z M43.2,45.6
			c-0.2,0.5-0.7,0.7-1.4,0.7c-0.6,0-1-0.2-1.3-0.6c-0.2-0.3-0.3-0.8-0.3-1.4c0-0.5,0.1-0.9,0.2-1.2c0.2-0.5,0.7-0.7,1.4-0.7
			c0.6,0,1,0.2,1.3,0.6c0.2,0.3,0.3,0.8,0.3,1.4C43.4,44.9,43.3,45.3,43.2,45.6z M76.7,42.1c-0.3,0.2-0.6,0.5-0.8,0.9
			c-0.2,0.4-0.3,0.9-0.3,1.5c0,0.5,0.1,0.9,0.2,1.2c0.2,0.6,0.6,1,1,1.1c0.3,0.1,0.6,0.1,1,0.1h1.6v-0.6h-1.5c-0.3,0-0.6,0-0.8-0.1
			c-0.2-0.1-0.3-0.2-0.5-0.5c-0.2-0.3-0.2-0.6-0.2-1h3V44h-3c0-0.3,0.1-0.6,0.1-0.8c0.1-0.2,0.2-0.4,0.4-0.5
			c0.1-0.1,0.2-0.2,0.4-0.2c0.1,0,0.4-0.1,0.6-0.1h1.4v-0.6H78C77.5,41.8,77,41.9,76.7,42.1z M46,45.9c-0.1-0.1-0.1-0.2-0.2-0.4
			c0-0.2-0.1-0.4-0.1-0.7v-3H45v3.1c0,0.4,0,0.7,0.1,0.9c0.1,0.2,0.2,0.4,0.3,0.6c0.2,0.2,0.4,0.3,0.6,0.4c0.2,0.1,0.5,0.1,0.9,0.1
			h1.2v-0.6h-1.1C46.6,46.3,46.2,46.2,46,45.9z M73.9,45.9l-2.5-4.1h-0.9v5.1h0.8v-4.1l2.5,4.1h0.9v-5.1h-0.8V45.9z"/>
	</g>
</g>
</svg>
