<svg xmlns="http://www.w3.org/2000/svg" viewBox="0 0 470 71.6"><path d="M307.1 0h-7.9l-9.1 9.5h7.8zM202.2 14.9c10 0 15.2 4.7 16.6 12h6.1c-1.5-11.7-11.1-17.4-23.1-17.4-12.6 0-21 6.8-21 17 0 8 5.5 13.5 16.4 15.5l10.3 2c7.7 1.4 11.2 5.1 11.2 10.1 0 7.1-6 11.7-15.5 11.7-10.9 0-17.4-5.4-18.8-14.7h-6.1c1.4 12.8 10.5 20.2 24.7 20.2 13.3 0 22.1-7.2 22.1-18 0-8.5-5.9-13.4-16.5-15.4l-9-1.7c-7.9-1.4-12.1-4.7-12.1-10.1-.2-6.8 5.7-11.2 14.7-11.2zm40.2-4.1h6.2v59.3h-6.2zM67.9 41.2l28.9-30.1H89L67.9 33V10.8h-6.2v59.4h38v-5.6H67.9zm292.6-26.3c10 0 15.2 4.7 16.6 12h6.1c-1.5-11.7-11.1-17.4-23.1-17.4-12.6 0-21 6.8-21 17 0 8 5.5 13.5 16.4 15.5l10.3 2c7.7 1.4 11.2 5.1 11.2 10.1 0 7.1-6 11.7-15.5 11.7-10.9 0-17.4-5.4-18.8-14.7h-6.1c1.4 12.8 10.5 20.2 24.7 20.2 13.3 0 22.1-7.2 22.1-18 0-8.5-5.9-13.4-16.5-15.4l-9-1.7c-7.9-1.4-12.1-4.7-12.1-10.1-.3-6.8 5.7-11.2 14.7-11.2zm103.3-4.1h6.2v59.3h-6.2zM136.6 9.6c-17.2 0-31 13.8-31 31s13.8 31 31 31 31-13.8 31-31-13.8-31-31-31zm0 56.2c-13.8 0-24.7-11.4-24.7-25.2 0-13.8 10.9-25.2 24.7-25.2 13.9 0 24.8 11.4 24.8 25.2-.1 13.8-10.9 25.2-24.8 25.2zm-88.9-55h-7.6L6.2 46.1V10.8H0v59.4h6.2V54.6l10.4-10.9 25.8 26.5h8.5l-30.1-31zm400.6 0h-7.6l-34 35.3V10.8h-6.2v59.4h6.2V54.6l10.4-10.9L443 70.2h8.4l-30.1-31zM320.7 70.2h-5.3L276.7 22v48.2h-6.2V10.8h5.1l38.9 48.7V10.8h6.2v59.4z"/></svg>