<svg xmlns="http://www.w3.org/2000/svg" viewBox="0 0 363.6 55.3"><path d="M237.6 0h-6.1l-7.1 7.3h6.1zm-81.2 11.5c7.7 0 11.7 3.6 12.8 9.2h4.7c-1.1-9-8.6-13.4-17.9-13.4-9.7 0-16.3 5.3-16.3 13.2 0 6.2 4.3 10.5 12.7 12l8 1.6c5.9 1.1 8.6 4 8.6 7.8 0 5.5-4.7 9-12 9-8.4 0-13.4-4.2-14.6-11.3h-4.7c1.1 9.9 8.1 15.7 19.1 15.7 10.3 0 17.1-5.5 17.1-13.9 0-6.5-4.6-10.4-12.8-12l-7-1.3c-6.1-1.1-9.4-3.6-9.4-7.8.2-5.4 4.8-8.8 11.7-8.8zm31.1-3.2h4.8v45.9h-4.8zm-135 23.5L74.9 8.6h-6.1L52.5 25.5V8.3h-4.8v45.9h29.4v-4.3H52.5zm226.4-20.3c7.7 0 11.7 3.6 12.8 9.2h4.7c-1.1-9-8.6-13.4-17.9-13.4-9.7 0-16.3 5.3-16.3 13.2 0 6.2 4.3 10.5 12.7 12l8 1.6c5.9 1.1 8.6 4 8.6 7.8 0 5.5-4.7 9-12 9-8.4 0-13.4-4.2-14.6-11.3h-4.7c1.1 9.9 8.1 15.7 19.1 15.7 10.3 0 17.1-5.5 17.1-13.9 0-6.5-4.6-10.4-12.8-12l-7-1.3c-6.1-1.1-9.4-3.6-9.4-7.8.1-5.4 4.7-8.8 11.7-8.8zm79.9-3.2h4.8v45.9h-4.8zm-253.1-.9c-13.3 0-24 10.7-24 24s10.7 24 24 24 24-10.7 24-24-10.7-24-24-24zm-.1 43.5c-10.7 0-19.1-8.8-19.1-19.5s8.4-19.5 19.1-19.5c10.8 0 19.2 8.8 19.2 19.5s-8.4 19.5-19.2 19.5zM36.9 8.3h-5.8L4.8 35.6V8.3H0v45.9h4.8v-12l8-8.4 20 20.4h6.6L16.1 30.3zm309.9 0h-5.9l-26.2 27.3V8.3h-4.8v45.9h4.8v-12l8-8.4 20 20.4h6.6L326 30.3zm-98.7 45.9H244L214 17v37.3h-4.8v-46h4L243.3 46V8.3h4.8v45.9z"/></svg>