<svg id="Warstwa_1" xmlns="http://www.w3.org/2000/svg" xmlns:xlink="http://www.w3.org/1999/xlink" viewBox="0 0 48.4 7.9"><style>.st0{opacity:.4}.st1{clip-path:url(#SVGID_2_)}.st2{clip-path:url(#SVGID_4_)}.st3{clip-path:url(#SVGID_6_)}</style><g class="st0"><defs><path id="SVGID_1_" d="M.6 7.8H0V.2h.8L6.2 7V.2h.6v7.5h-.7L.6 1v6.8z"/></defs><use xlink:href="#SVGID_1_" overflow="visible"/><clipPath id="SVGID_2_"><use xlink:href="#SVGID_1_" overflow="visible"/></clipPath><path class="st1" d="M0 .2v7.5V.2zm6.9 7.6V.2v7.6z"/><defs><path id="SVGID_3_" d="M21.5.8V.2h6.6v.5h-3v7h-.6v-7h-3z"/></defs><use xlink:href="#SVGID_3_" overflow="visible"/><clipPath id="SVGID_4_"><use xlink:href="#SVGID_3_" overflow="visible"/></clipPath><path class="st2" d="M21.5.2v7.5V.2zm6.6 7.6V.2v7.6z"/><defs><path id="SVGID_5_" d="M42.3 5.4c0 1.2.6 1.6 1.1 1.8.4.2.9.2 1.7.2 1 0 1.5-.1 1.8-.3.7-.4.9-1 .9-1.4 0-.6-.3-.9-.5-1.1-.3-.2-.7-.3-1.5-.5L44.5 4c-.6-.1-1.6-.2-2.2-.7-.4-.3-.6-.7-.6-1.2s.1-1.2 1-1.7c.3-.2 1-.4 2.2-.4 1 0 1.7.1 2.2.5.8.5 1 1.1 1 1.7h-.6c0-.4-.1-.9-.8-1.3-.2-.1-.7-.3-1.8-.3-.8 0-1.3.1-1.7.3-.5.2-.8.6-.8 1.2 0 .4.2.7.4.9.4.3 1.2.4 1.9.6l1.2.2c.5.1 1.3.2 1.8.6.5.4.7.8.7 1.4 0 1-.6 1.5-1.2 1.8-.6.3-1.3.4-2.1.4s-1.6 0-2.3-.4c-.9-.5-1.1-1.4-1.1-2.1h.6z"/></defs><use xlink:href="#SVGID_5_" overflow="visible"/><clipPath id="SVGID_6_"><use xlink:href="#SVGID_5_" overflow="visible"/></clipPath><path class="st3" d="M48.4 7.9V0v7.9z"/><path d="M11 7.9l-.4-.4L18.1.1l.4.3zm19.9 0l-.4-.4L38 .1l.4.3z"/></g></svg>