<?xml version="1.0" encoding="utf-8"?>
<!-- Generator: Adobe Illustrator 22.0.1, SVG Export Plug-In . SVG Version: 6.00 Build 0)  -->
<svg version="1.1" id="dom-group" xmlns="http://www.w3.org/2000/svg" xmlns:xlink="http://www.w3.org/1999/xlink" x="0px" y="0px"
	 viewBox="0 0 11.9 12" style="enable-background:new 0 0 11.9 12;" xml:space="preserve">
<path d="M10.4,10.4c-0.1,0.1-0.2,0.1-0.3,0.1H1.8c-0.1,0-0.2,0-0.3-0.1c-0.1-0.1-0.1-0.2-0.1-0.3v-5h1.1c-0.1,0.3-0.2,0.7-0.2,1
	c0,1,0.4,1.8,1.1,2.6C4.1,9.3,5,9.7,6,9.7c0.7,0,1.3-0.2,1.9-0.5c0.6-0.3,1-0.8,1.4-1.3c0.3-0.6,0.5-1.2,0.5-1.8
	c0-0.4-0.1-0.7-0.2-1h1v5C10.6,10.2,10.5,10.4,10.4,10.4z M6,8.3c-0.7,0-1.2-0.2-1.7-0.7C3.8,7.1,3.6,6.6,3.6,6
	c0-0.6,0.2-1.2,0.7-1.6c0.5-0.5,1-0.7,1.7-0.7c0.7,0,1.2,0.2,1.7,0.7c0.5,0.5,0.7,1,0.7,1.6c0,0.6-0.2,1.2-0.7,1.6
	C7.2,8.1,6.6,8.3,6,8.3L6,8.3z M10.4,3.5c-0.1,0.1-0.2,0.2-0.4,0.2H8.7c-0.2,0-0.3-0.1-0.4-0.2C8.2,3.4,8.2,3.3,8.2,3.2V1.9
	c0-0.1,0.1-0.3,0.2-0.4c0.1-0.1,0.2-0.2,0.4-0.2H10c0.2,0,0.3,0.1,0.4,0.2c0.1,0.1,0.2,0.2,0.2,0.4v1.3C10.6,3.3,10.5,3.4,10.4,3.5z
	 M11.5,0.5C11.2,0.1,10.8,0,10.4,0H1.5C1.1,0,0.8,0.1,0.5,0.5C0.2,0.8,0,1.1,0,1.5v8.9c0,0.4,0.2,0.8,0.5,1.1
	C0.8,11.8,1.1,12,1.5,12h8.9c0.4,0,0.8-0.1,1.1-0.5c0.3-0.3,0.5-0.7,0.5-1.1V1.5C11.9,1.1,11.8,0.8,11.5,0.5z"/>
</svg>
