<?xml version="1.0" encoding="utf-8"?>
<!-- Generator: Adobe Illustrator 22.0.1, SVG Export Plug-In . SVG Version: 6.00 Build 0)  -->
<svg version="1.1" id="dom-group" xmlns="http://www.w3.org/2000/svg" xmlns:xlink="http://www.w3.org/1999/xlink" x="0px" y="0px"
	 viewBox="0 0 9.6 7.3" style="enable-background:new 0 0 9.6 7.3;" xml:space="preserve">
<path d="M9.4,1L8.6,0.2C8.5,0.1,8.3,0,8.2,0C8,0,7.8,0.1,7.7,0.2L3.7,4.2L1.9,2.4C1.7,2.3,1.6,2.2,1.4,2.2S1.1,2.3,1,2.4L0.2,3.3
	C0.1,3.4,0,3.5,0,3.7C0,3.8,0.1,4,0.2,4.1l2.2,2.2l0.8,0.8c0.1,0.1,0.3,0.2,0.4,0.2S4,7.3,4.1,7.2l0.8-0.8l4.5-4.5
	c0.1-0.1,0.2-0.3,0.2-0.4C9.6,1.3,9.5,1.1,9.4,1L9.4,1z"/>
</svg>
