<?xml version="1.0" encoding="utf-8"?>
<!-- Generator: Adobe Illustrator 22.0.1, SVG Export Plug-In . SVG Version: 6.00 Build 0)  -->
<svg version="1.1" id="Warstwa_1" xmlns="http://www.w3.org/2000/svg" xmlns:xlink="http://www.w3.org/1999/xlink" x="0px" y="0px"
	 viewBox="0 0 470 71.6" style="enable-background:new 0 0 470 71.6;" xml:space="preserve">
<g>
	<polygon points="307.1,0 299.2,0 290.1,9.5 297.9,9.5 	"/>
	<path d="M202.2,14.9c10,0,15.2,4.7,16.6,12h6.1c-1.5-11.7-11.1-17.4-23.1-17.4c-12.6,0-21,6.8-21,17c0,8,5.5,13.5,16.4,15.5l10.3,2
		c7.7,1.4,11.2,5.1,11.2,10.1c0,7.1-6,11.7-15.5,11.7c-10.9,0-17.4-5.4-18.8-14.7h-6.1c1.4,12.8,10.5,20.2,24.7,20.2
		c13.3,0,22.1-7.2,22.1-18c0-8.5-5.9-13.4-16.5-15.4l-9-1.7c-7.9-1.4-12.1-4.7-12.1-10.1C187.3,19.3,193.2,14.9,202.2,14.9z"/>
	<rect x="242.4" y="10.8" width="6.2" height="59.3"/>
	<polygon points="67.9,41.2 96.8,11.1 89,11.1 67.9,33 67.9,10.8 61.7,10.8 61.7,70.2 99.7,70.2 99.7,64.6 67.9,64.6 	"/>
	<path d="M360.5,14.9c10,0,15.2,4.7,16.6,12h6.1c-1.5-11.7-11.1-17.4-23.1-17.4c-12.6,0-21,6.8-21,17c0,8,5.5,13.5,16.4,15.5l10.3,2
		c7.7,1.4,11.2,5.1,11.2,10.1c0,7.1-6,11.7-15.5,11.7c-10.9,0-17.4-5.4-18.8-14.7h-6.1c1.4,12.8,10.5,20.2,24.7,20.2
		c13.3,0,22.1-7.2,22.1-18c0-8.5-5.9-13.4-16.5-15.4l-9-1.7c-7.9-1.4-12.1-4.7-12.1-10.1C345.5,19.3,351.5,14.9,360.5,14.9z"/>
	<rect x="463.8" y="10.8" width="6.2" height="59.3"/>
	<path d="M136.6,9.6c-17.2,0-31,13.8-31,31s13.8,31,31,31s31-13.8,31-31C167.6,23.4,153.8,9.6,136.6,9.6z M136.6,65.8
		c-13.8,0-24.7-11.4-24.7-25.2c0-13.8,10.9-25.2,24.7-25.2c13.9,0,24.8,11.4,24.8,25.2C161.3,54.4,150.5,65.8,136.6,65.8z"/>
	<polygon points="47.7,10.8 40.1,10.8 6.2,46.1 6.2,10.8 0,10.8 0,70.2 6.2,70.2 6.2,54.6 16.6,43.7 42.4,70.2 50.9,70.2 20.8,39.2 
			"/>
	<polygon points="448.3,10.8 440.7,10.8 406.7,46.1 406.7,10.8 400.5,10.8 400.5,70.2 406.7,70.2 406.7,54.6 417.1,43.7 443,70.2 
		451.4,70.2 421.3,39.2 	"/>
	<path d="M320.7,70.2h-5.3L276.7,22v48.2h-6.2V10.8h5.1l38.9,48.7V10.8h6.2V70.2z"/>
</g>
</svg>
